M48
; DRILL file {KiCad 5.1.6} date Sun Aug  2 20:43:06 2020
; FORMAT={-:-/ absolute / inch / decimal}
; #@! TF.CreationDate,2020-08-02T20:43:06+02:00
; #@! TF.GenerationSoftware,Kicad,Pcbnew,5.1.6
; #@! TF.FileFunction,Plated,1,2,PTH
FMAT,2
INCH
T1C0.0300
T2C0.0315
%
G90
G05
T1
X5.2835Y-3.8819
X6.3701Y-4.4409
X5.2835Y-4.4409
T2
X5.512Y-4.0234
X5.512Y-4.1234
X5.512Y-4.2234
X5.512Y-4.3234
X5.812Y-4.0234
X5.812Y-4.1234
X5.812Y-4.2234
X5.812Y-4.3234
X5.7559Y-4.4488
X5.9528Y-4.4488
X5.8189Y-3.874
X5.8976Y-3.874
X5.9764Y-3.874
X5.9528Y-4.0079
X5.9528Y-4.2047
X6.0787Y-4.0551
X6.0787Y-4.4551
X5.2362Y-4.1417
X5.2362Y-4.2205
X5.3543Y-4.0945
X5.3543Y-4.2913
X5.5276Y-3.874
X5.6063Y-3.874
X5.685Y-3.874
X6.2205Y-4.1732
X6.2205Y-4.3701
X6.2756Y-3.9173
X6.2756Y-4.0157
X6.4016Y-4.1496
X6.4016Y-4.2283
T0
M30
