G04 #@! TF.GenerationSoftware,KiCad,Pcbnew,5.1.6*
G04 #@! TF.CreationDate,2020-08-02T20:42:37+02:00*
G04 #@! TF.ProjectId,little_gem,6c697474-6c65-45f6-9765-6d2e6b696361,rev?*
G04 #@! TF.SameCoordinates,Original*
G04 #@! TF.FileFunction,Copper,L2,Bot*
G04 #@! TF.FilePolarity,Positive*
%FSLAX46Y46*%
G04 Gerber Fmt 4.6, Leading zero omitted, Abs format (unit mm)*
G04 Created by KiCad (PCBNEW 5.1.6) date 2020-08-02 20:42:37*
%MOMM*%
%LPD*%
G01*
G04 APERTURE LIST*
G04 #@! TA.AperFunction,ComponentPad*
%ADD10C,2.000000*%
G04 #@! TD*
G04 #@! TA.AperFunction,ComponentPad*
%ADD11R,1.600000X1.600000*%
G04 #@! TD*
G04 #@! TA.AperFunction,ComponentPad*
%ADD12C,1.600000*%
G04 #@! TD*
G04 #@! TA.AperFunction,ComponentPad*
%ADD13R,1.350000X1.350000*%
G04 #@! TD*
G04 #@! TA.AperFunction,ComponentPad*
%ADD14O,1.350000X1.350000*%
G04 #@! TD*
G04 #@! TA.AperFunction,ComponentPad*
%ADD15O,1.600000X1.600000*%
G04 #@! TD*
G04 #@! TA.AperFunction,ComponentPad*
%ADD16R,2.400000X1.600000*%
G04 #@! TD*
G04 #@! TA.AperFunction,ComponentPad*
%ADD17O,2.400000X1.600000*%
G04 #@! TD*
G04 #@! TA.AperFunction,Conductor*
%ADD18C,0.500000*%
G04 #@! TD*
G04 APERTURE END LIST*
D10*
X134200000Y-98600000D03*
X134200000Y-112800000D03*
X161800000Y-112800000D03*
D11*
X159400000Y-102000000D03*
D12*
X159400000Y-99500000D03*
D13*
X147800000Y-98400000D03*
D14*
X149800000Y-98400000D03*
X151800000Y-98400000D03*
X162600000Y-105400000D03*
D13*
X162600000Y-107400000D03*
D12*
X136000000Y-104000000D03*
X136000000Y-109000000D03*
X146200000Y-113000000D03*
X151200000Y-113000000D03*
X151200000Y-106800000D03*
X151200000Y-101800000D03*
X158000000Y-106000000D03*
X158000000Y-111000000D03*
X154400000Y-103000000D03*
D15*
X154400000Y-113160000D03*
D16*
X140005001Y-102195001D03*
D17*
X147625001Y-109815001D03*
X140005001Y-104735001D03*
X147625001Y-107275001D03*
X140005001Y-107275001D03*
X147625001Y-104735001D03*
X140005001Y-109815001D03*
X147625001Y-102195001D03*
D14*
X140400000Y-98400000D03*
X142400000Y-98400000D03*
D13*
X144400000Y-98400000D03*
X133000000Y-107200000D03*
D14*
X133000000Y-105200000D03*
D18*
X136000000Y-104000000D02*
X137000000Y-105000000D01*
X139740002Y-105000000D02*
X140005001Y-104735001D01*
X137000000Y-105000000D02*
X139740002Y-105000000D01*
X136000000Y-107000000D02*
X136000000Y-109000000D01*
X134200000Y-105200000D02*
X136000000Y-107000000D01*
X133000000Y-105200000D02*
X134200000Y-105200000D01*
X133000000Y-109500000D02*
X134000000Y-110500000D01*
X139320002Y-110500000D02*
X140005001Y-109815001D01*
X134000000Y-110500000D02*
X139320002Y-110500000D01*
X140005001Y-109815001D02*
X140005001Y-107275001D01*
X161600000Y-102400000D02*
X158000000Y-106000000D01*
X161600000Y-99000000D02*
X161600000Y-102400000D01*
X160325001Y-97725001D02*
X161600000Y-99000000D01*
X152474999Y-97725001D02*
X160325001Y-97725001D01*
X151800000Y-98400000D02*
X152474999Y-97725001D01*
X157200001Y-106799999D02*
X158000000Y-106000000D01*
X151200000Y-106800000D02*
X157200001Y-106799999D01*
X133000000Y-107600000D02*
X133200000Y-107400000D01*
X158000000Y-106000000D02*
X159400000Y-107400000D01*
X159400000Y-107400000D02*
X162600000Y-107400000D01*
X133000000Y-109500000D02*
X133000000Y-107200000D01*
X146200000Y-113000000D02*
X143000000Y-109800000D01*
X140020002Y-109800000D02*
X140005001Y-109815001D01*
X143000000Y-109800000D02*
X140020002Y-109800000D01*
X152000000Y-114400000D02*
X147600000Y-114400000D01*
X152800000Y-113600000D02*
X152000000Y-114400000D01*
X152800000Y-108400000D02*
X152800000Y-113600000D01*
X147600000Y-114400000D02*
X146200000Y-113000000D01*
X151200000Y-106800000D02*
X152800000Y-108400000D01*
X147550000Y-107200000D02*
X147625001Y-107275001D01*
X145800000Y-107200000D02*
X147550000Y-107200000D01*
X145000000Y-108000000D02*
X145800000Y-107200000D01*
X145800000Y-111400000D02*
X145000000Y-110600000D01*
X147042219Y-111400000D02*
X145800000Y-111400000D01*
X145000000Y-110600000D02*
X145000000Y-108000000D01*
X148642219Y-113000000D02*
X147042219Y-111400000D01*
X151200000Y-113000000D02*
X148642219Y-113000000D01*
X148264999Y-104735001D02*
X151200000Y-101800000D01*
X147625001Y-104735001D02*
X148264999Y-104735001D01*
X155840000Y-113160000D02*
X158000000Y-111000000D01*
X154400000Y-113160000D02*
X155840000Y-113160000D01*
X152400000Y-103000000D02*
X154400000Y-103000000D01*
X149600000Y-105800000D02*
X152400000Y-103000000D01*
X149600000Y-107840002D02*
X149600000Y-105800000D01*
X147625001Y-109815001D02*
X149600000Y-107840002D01*
X158400000Y-103000000D02*
X159400000Y-102000000D01*
X154400000Y-103000000D02*
X158400000Y-103000000D01*
X149699999Y-100299999D02*
X147800000Y-98400000D01*
X158600001Y-100299999D02*
X149699999Y-100299999D01*
X159400000Y-99500000D02*
X158600001Y-100299999D01*
X151324990Y-96875010D02*
X149800000Y-98400000D01*
X162600000Y-98600000D02*
X160875010Y-96875010D01*
X160875010Y-96875010D02*
X151324990Y-96875010D01*
X162600000Y-98600000D02*
X162600000Y-105400000D01*
X140005001Y-98794999D02*
X140400000Y-98400000D01*
X140005001Y-102195001D02*
X140005001Y-98794999D01*
X142400000Y-98400000D02*
X144400000Y-98400000D01*
X144400000Y-98400000D02*
X144400000Y-100800000D01*
X144400000Y-100800000D02*
X145795001Y-102195001D01*
X145795001Y-102195001D02*
X147625001Y-102195001D01*
M02*
