G04 #@! TF.GenerationSoftware,KiCad,Pcbnew,5.1.6*
G04 #@! TF.CreationDate,2020-08-02T20:42:37+02:00*
G04 #@! TF.ProjectId,little_gem,6c697474-6c65-45f6-9765-6d2e6b696361,rev?*
G04 #@! TF.SameCoordinates,Original*
G04 #@! TF.FileFunction,Legend,Top*
G04 #@! TF.FilePolarity,Positive*
%FSLAX46Y46*%
G04 Gerber Fmt 4.6, Leading zero omitted, Abs format (unit mm)*
G04 Created by KiCad (PCBNEW 5.1.6) date 2020-08-02 20:42:37*
%MOMM*%
%LPD*%
G01*
G04 APERTURE LIST*
%ADD10C,0.100000*%
%ADD11C,0.150000*%
%ADD12C,0.120000*%
%ADD13C,0.125000*%
G04 APERTURE END LIST*
D10*
X144734523Y-110447619D02*
X145341666Y-110447619D01*
X145463095Y-110466666D01*
X145544047Y-110504761D01*
X145584523Y-110561904D01*
X145584523Y-110600000D01*
X145584523Y-110066666D02*
X145584523Y-110257142D01*
X144734523Y-110257142D01*
X145503571Y-109704761D02*
X145544047Y-109723809D01*
X145584523Y-109780952D01*
X145584523Y-109819047D01*
X145544047Y-109876190D01*
X145463095Y-109914285D01*
X145382142Y-109933333D01*
X145220238Y-109952380D01*
X145098809Y-109952380D01*
X144936904Y-109933333D01*
X144855952Y-109914285D01*
X144775000Y-109876190D01*
X144734523Y-109819047D01*
X144734523Y-109780952D01*
X144775000Y-109723809D01*
X144815476Y-109704761D01*
X144734523Y-109419047D02*
X145341666Y-109419047D01*
X145463095Y-109438095D01*
X145544047Y-109476190D01*
X145584523Y-109533333D01*
X145584523Y-109571428D01*
X145584523Y-109038095D02*
X145584523Y-109228571D01*
X144734523Y-109228571D01*
X145503571Y-108676190D02*
X145544047Y-108695238D01*
X145584523Y-108752380D01*
X145584523Y-108790476D01*
X145544047Y-108847619D01*
X145463095Y-108885714D01*
X145382142Y-108904761D01*
X145220238Y-108923809D01*
X145098809Y-108923809D01*
X144936904Y-108904761D01*
X144855952Y-108885714D01*
X144775000Y-108847619D01*
X144734523Y-108790476D01*
X144734523Y-108752380D01*
X144775000Y-108695238D01*
X144815476Y-108676190D01*
X144734523Y-108390476D02*
X145341666Y-108390476D01*
X145463095Y-108409523D01*
X145544047Y-108447619D01*
X145584523Y-108504761D01*
X145584523Y-108542857D01*
X145584523Y-108009523D02*
X145584523Y-108200000D01*
X144734523Y-108200000D01*
X145503571Y-107647619D02*
X145544047Y-107666666D01*
X145584523Y-107723809D01*
X145584523Y-107761904D01*
X145544047Y-107819047D01*
X145463095Y-107857142D01*
X145382142Y-107876190D01*
X145220238Y-107895238D01*
X145098809Y-107895238D01*
X144936904Y-107876190D01*
X144855952Y-107857142D01*
X144775000Y-107819047D01*
X144734523Y-107761904D01*
X144734523Y-107723809D01*
X144775000Y-107666666D01*
X144815476Y-107647619D01*
X144734523Y-107361904D02*
X145341666Y-107361904D01*
X145463095Y-107380952D01*
X145544047Y-107419047D01*
X145584523Y-107476190D01*
X145584523Y-107514285D01*
X145584523Y-106980952D02*
X145584523Y-107171428D01*
X144734523Y-107171428D01*
X145503571Y-106619047D02*
X145544047Y-106638095D01*
X145584523Y-106695238D01*
X145584523Y-106733333D01*
X145544047Y-106790476D01*
X145463095Y-106828571D01*
X145382142Y-106847619D01*
X145220238Y-106866666D01*
X145098809Y-106866666D01*
X144936904Y-106847619D01*
X144855952Y-106828571D01*
X144775000Y-106790476D01*
X144734523Y-106733333D01*
X144734523Y-106695238D01*
X144775000Y-106638095D01*
X144815476Y-106619047D01*
D11*
X136878571Y-112857142D02*
X136792857Y-112814285D01*
X136750000Y-112728571D01*
X136750000Y-111957142D01*
X137221428Y-112857142D02*
X137221428Y-112257142D01*
X137221428Y-111957142D02*
X137178571Y-112000000D01*
X137221428Y-112042857D01*
X137264285Y-112000000D01*
X137221428Y-111957142D01*
X137221428Y-112042857D01*
X137521428Y-112257142D02*
X137864285Y-112257142D01*
X137650000Y-111957142D02*
X137650000Y-112728571D01*
X137692857Y-112814285D01*
X137778571Y-112857142D01*
X137864285Y-112857142D01*
X138035714Y-112257142D02*
X138378571Y-112257142D01*
X138164285Y-111957142D02*
X138164285Y-112728571D01*
X138207142Y-112814285D01*
X138292857Y-112857142D01*
X138378571Y-112857142D01*
X138807142Y-112857142D02*
X138721428Y-112814285D01*
X138678571Y-112728571D01*
X138678571Y-111957142D01*
X139492857Y-112814285D02*
X139407142Y-112857142D01*
X139235714Y-112857142D01*
X139150000Y-112814285D01*
X139107142Y-112728571D01*
X139107142Y-112385714D01*
X139150000Y-112300000D01*
X139235714Y-112257142D01*
X139407142Y-112257142D01*
X139492857Y-112300000D01*
X139535714Y-112385714D01*
X139535714Y-112471428D01*
X139107142Y-112557142D01*
X139707142Y-112942857D02*
X140392857Y-112942857D01*
X140992857Y-112257142D02*
X140992857Y-112985714D01*
X140950000Y-113071428D01*
X140907142Y-113114285D01*
X140821428Y-113157142D01*
X140692857Y-113157142D01*
X140607142Y-113114285D01*
X140992857Y-112814285D02*
X140907142Y-112857142D01*
X140735714Y-112857142D01*
X140650000Y-112814285D01*
X140607142Y-112771428D01*
X140564285Y-112685714D01*
X140564285Y-112428571D01*
X140607142Y-112342857D01*
X140650000Y-112300000D01*
X140735714Y-112257142D01*
X140907142Y-112257142D01*
X140992857Y-112300000D01*
X141764285Y-112814285D02*
X141678571Y-112857142D01*
X141507142Y-112857142D01*
X141421428Y-112814285D01*
X141378571Y-112728571D01*
X141378571Y-112385714D01*
X141421428Y-112300000D01*
X141507142Y-112257142D01*
X141678571Y-112257142D01*
X141764285Y-112300000D01*
X141807142Y-112385714D01*
X141807142Y-112471428D01*
X141378571Y-112557142D01*
X142192857Y-112857142D02*
X142192857Y-112257142D01*
X142192857Y-112342857D02*
X142235714Y-112300000D01*
X142321428Y-112257142D01*
X142450000Y-112257142D01*
X142535714Y-112300000D01*
X142578571Y-112385714D01*
X142578571Y-112857142D01*
X142578571Y-112385714D02*
X142621428Y-112300000D01*
X142707142Y-112257142D01*
X142835714Y-112257142D01*
X142921428Y-112300000D01*
X142964285Y-112385714D01*
X142964285Y-112857142D01*
X138914285Y-113757142D02*
X139128571Y-114357142D01*
X139342857Y-113757142D01*
X140157142Y-114357142D02*
X139642857Y-114357142D01*
X139900000Y-114357142D02*
X139900000Y-113457142D01*
X139814285Y-113585714D01*
X139728571Y-113671428D01*
X139642857Y-113714285D01*
X140542857Y-114271428D02*
X140585714Y-114314285D01*
X140542857Y-114357142D01*
X140500000Y-114314285D01*
X140542857Y-114271428D01*
X140542857Y-114357142D01*
X141142857Y-113457142D02*
X141228571Y-113457142D01*
X141314285Y-113500000D01*
X141357142Y-113542857D01*
X141400000Y-113628571D01*
X141442857Y-113800000D01*
X141442857Y-114014285D01*
X141400000Y-114185714D01*
X141357142Y-114271428D01*
X141314285Y-114314285D01*
X141228571Y-114357142D01*
X141142857Y-114357142D01*
X141057142Y-114314285D01*
X141014285Y-114271428D01*
X140971428Y-114185714D01*
X140928571Y-114014285D01*
X140928571Y-113800000D01*
X140971428Y-113628571D01*
X141014285Y-113542857D01*
X141057142Y-113500000D01*
X141142857Y-113457142D01*
D12*
X157246000Y-103935241D02*
X157876000Y-103935241D01*
X157561000Y-104250241D02*
X157561000Y-103620241D01*
X158998000Y-97509000D02*
X159802000Y-97509000D01*
X158767000Y-97549000D02*
X160033000Y-97549000D01*
X158598000Y-97589000D02*
X160202000Y-97589000D01*
X158460000Y-97629000D02*
X160340000Y-97629000D01*
X158341000Y-97669000D02*
X160459000Y-97669000D01*
X158235000Y-97709000D02*
X160565000Y-97709000D01*
X158138000Y-97749000D02*
X160662000Y-97749000D01*
X158050000Y-97789000D02*
X160750000Y-97789000D01*
X157968000Y-97829000D02*
X160832000Y-97829000D01*
X157891000Y-97869000D02*
X160909000Y-97869000D01*
X157819000Y-97909000D02*
X160981000Y-97909000D01*
X157750000Y-97949000D02*
X161050000Y-97949000D01*
X157686000Y-97989000D02*
X161114000Y-97989000D01*
X157624000Y-98029000D02*
X161176000Y-98029000D01*
X157566000Y-98069000D02*
X161234000Y-98069000D01*
X157510000Y-98109000D02*
X161290000Y-98109000D01*
X157456000Y-98149000D02*
X161344000Y-98149000D01*
X157405000Y-98189000D02*
X161395000Y-98189000D01*
X157356000Y-98229000D02*
X161444000Y-98229000D01*
X157308000Y-98269000D02*
X161492000Y-98269000D01*
X157263000Y-98309000D02*
X161537000Y-98309000D01*
X157218000Y-98349000D02*
X161582000Y-98349000D01*
X157176000Y-98389000D02*
X161624000Y-98389000D01*
X157135000Y-98429000D02*
X161665000Y-98429000D01*
X160440000Y-98469000D02*
X161705000Y-98469000D01*
X157095000Y-98469000D02*
X158360000Y-98469000D01*
X160440000Y-98509000D02*
X161743000Y-98509000D01*
X157057000Y-98509000D02*
X158360000Y-98509000D01*
X160440000Y-98549000D02*
X161780000Y-98549000D01*
X157020000Y-98549000D02*
X158360000Y-98549000D01*
X160440000Y-98589000D02*
X161816000Y-98589000D01*
X156984000Y-98589000D02*
X158360000Y-98589000D01*
X160440000Y-98629000D02*
X161850000Y-98629000D01*
X156950000Y-98629000D02*
X158360000Y-98629000D01*
X160440000Y-98669000D02*
X161884000Y-98669000D01*
X156916000Y-98669000D02*
X158360000Y-98669000D01*
X160440000Y-98709000D02*
X161916000Y-98709000D01*
X156884000Y-98709000D02*
X158360000Y-98709000D01*
X160440000Y-98749000D02*
X161948000Y-98749000D01*
X156852000Y-98749000D02*
X158360000Y-98749000D01*
X160440000Y-98789000D02*
X161978000Y-98789000D01*
X156822000Y-98789000D02*
X158360000Y-98789000D01*
X160440000Y-98829000D02*
X162007000Y-98829000D01*
X156793000Y-98829000D02*
X158360000Y-98829000D01*
X160440000Y-98869000D02*
X162036000Y-98869000D01*
X156764000Y-98869000D02*
X158360000Y-98869000D01*
X160440000Y-98909000D02*
X162064000Y-98909000D01*
X156736000Y-98909000D02*
X158360000Y-98909000D01*
X160440000Y-98949000D02*
X162090000Y-98949000D01*
X156710000Y-98949000D02*
X158360000Y-98949000D01*
X160440000Y-98989000D02*
X162116000Y-98989000D01*
X156684000Y-98989000D02*
X158360000Y-98989000D01*
X160440000Y-99029000D02*
X162142000Y-99029000D01*
X156658000Y-99029000D02*
X158360000Y-99029000D01*
X160440000Y-99069000D02*
X162166000Y-99069000D01*
X156634000Y-99069000D02*
X158360000Y-99069000D01*
X160440000Y-99109000D02*
X162190000Y-99109000D01*
X156610000Y-99109000D02*
X158360000Y-99109000D01*
X160440000Y-99149000D02*
X162212000Y-99149000D01*
X156588000Y-99149000D02*
X158360000Y-99149000D01*
X160440000Y-99189000D02*
X162234000Y-99189000D01*
X156566000Y-99189000D02*
X158360000Y-99189000D01*
X160440000Y-99229000D02*
X162256000Y-99229000D01*
X156544000Y-99229000D02*
X158360000Y-99229000D01*
X160440000Y-99269000D02*
X162276000Y-99269000D01*
X156524000Y-99269000D02*
X158360000Y-99269000D01*
X160440000Y-99309000D02*
X162296000Y-99309000D01*
X156504000Y-99309000D02*
X158360000Y-99309000D01*
X160440000Y-99349000D02*
X162316000Y-99349000D01*
X156484000Y-99349000D02*
X158360000Y-99349000D01*
X160440000Y-99389000D02*
X162334000Y-99389000D01*
X156466000Y-99389000D02*
X158360000Y-99389000D01*
X160440000Y-99429000D02*
X162352000Y-99429000D01*
X156448000Y-99429000D02*
X158360000Y-99429000D01*
X160440000Y-99469000D02*
X162370000Y-99469000D01*
X156430000Y-99469000D02*
X158360000Y-99469000D01*
X160440000Y-99509000D02*
X162386000Y-99509000D01*
X156414000Y-99509000D02*
X158360000Y-99509000D01*
X160440000Y-99549000D02*
X162402000Y-99549000D01*
X156398000Y-99549000D02*
X158360000Y-99549000D01*
X160440000Y-99589000D02*
X162418000Y-99589000D01*
X156382000Y-99589000D02*
X158360000Y-99589000D01*
X160440000Y-99629000D02*
X162433000Y-99629000D01*
X156367000Y-99629000D02*
X158360000Y-99629000D01*
X160440000Y-99669000D02*
X162447000Y-99669000D01*
X156353000Y-99669000D02*
X158360000Y-99669000D01*
X160440000Y-99709000D02*
X162461000Y-99709000D01*
X156339000Y-99709000D02*
X158360000Y-99709000D01*
X160440000Y-99749000D02*
X162474000Y-99749000D01*
X156326000Y-99749000D02*
X158360000Y-99749000D01*
X160440000Y-99789000D02*
X162486000Y-99789000D01*
X156314000Y-99789000D02*
X158360000Y-99789000D01*
X160440000Y-99829000D02*
X162498000Y-99829000D01*
X156302000Y-99829000D02*
X158360000Y-99829000D01*
X160440000Y-99869000D02*
X162510000Y-99869000D01*
X156290000Y-99869000D02*
X158360000Y-99869000D01*
X160440000Y-99909000D02*
X162521000Y-99909000D01*
X156279000Y-99909000D02*
X158360000Y-99909000D01*
X160440000Y-99949000D02*
X162531000Y-99949000D01*
X156269000Y-99949000D02*
X158360000Y-99949000D01*
X160440000Y-99989000D02*
X162541000Y-99989000D01*
X156259000Y-99989000D02*
X158360000Y-99989000D01*
X160440000Y-100029000D02*
X162550000Y-100029000D01*
X156250000Y-100029000D02*
X158360000Y-100029000D01*
X160440000Y-100070000D02*
X162559000Y-100070000D01*
X156241000Y-100070000D02*
X158360000Y-100070000D01*
X160440000Y-100110000D02*
X162567000Y-100110000D01*
X156233000Y-100110000D02*
X158360000Y-100110000D01*
X160440000Y-100150000D02*
X162575000Y-100150000D01*
X156225000Y-100150000D02*
X158360000Y-100150000D01*
X160440000Y-100190000D02*
X162582000Y-100190000D01*
X156218000Y-100190000D02*
X158360000Y-100190000D01*
X160440000Y-100230000D02*
X162589000Y-100230000D01*
X156211000Y-100230000D02*
X158360000Y-100230000D01*
X160440000Y-100270000D02*
X162595000Y-100270000D01*
X156205000Y-100270000D02*
X158360000Y-100270000D01*
X160440000Y-100310000D02*
X162601000Y-100310000D01*
X156199000Y-100310000D02*
X158360000Y-100310000D01*
X160440000Y-100350000D02*
X162606000Y-100350000D01*
X156194000Y-100350000D02*
X158360000Y-100350000D01*
X160440000Y-100390000D02*
X162611000Y-100390000D01*
X156189000Y-100390000D02*
X158360000Y-100390000D01*
X160440000Y-100430000D02*
X162615000Y-100430000D01*
X156185000Y-100430000D02*
X158360000Y-100430000D01*
X160440000Y-100470000D02*
X162618000Y-100470000D01*
X156182000Y-100470000D02*
X158360000Y-100470000D01*
X160440000Y-100510000D02*
X162622000Y-100510000D01*
X156178000Y-100510000D02*
X158360000Y-100510000D01*
X156176000Y-100550000D02*
X162624000Y-100550000D01*
X156173000Y-100590000D02*
X162627000Y-100590000D01*
X156172000Y-100630000D02*
X162628000Y-100630000D01*
X156170000Y-100670000D02*
X162630000Y-100670000D01*
X156170000Y-100710000D02*
X162630000Y-100710000D01*
X156170000Y-100750000D02*
X162630000Y-100750000D01*
X162670000Y-100750000D02*
G75*
G03*
X162670000Y-100750000I-3270000J0D01*
G01*
X152860000Y-99460000D02*
X152860000Y-97340000D01*
X148800000Y-99460000D02*
X152860000Y-99460000D01*
X148800000Y-97340000D02*
X152860000Y-97340000D01*
X148800000Y-99460000D02*
X148800000Y-97340000D01*
X147800000Y-99460000D02*
X146740000Y-99460000D01*
X146740000Y-99460000D02*
X146740000Y-98400000D01*
X163660000Y-108460000D02*
X162600000Y-108460000D01*
X163660000Y-107400000D02*
X163660000Y-108460000D01*
X163660000Y-106400000D02*
X161540000Y-106400000D01*
X161540000Y-106400000D02*
X161540000Y-104340000D01*
X163660000Y-106400000D02*
X163660000Y-104340000D01*
X163660000Y-104340000D02*
X161540000Y-104340000D01*
X137370000Y-110220000D02*
X134630000Y-110220000D01*
X137370000Y-102780000D02*
X134630000Y-102780000D01*
X134630000Y-102780000D02*
X134630000Y-110220000D01*
X137370000Y-102780000D02*
X137370000Y-110220000D01*
X152420000Y-114370000D02*
X144980000Y-114370000D01*
X152420000Y-111630000D02*
X144980000Y-111630000D01*
X152420000Y-114370000D02*
X152420000Y-111630000D01*
X144980000Y-114370000D02*
X144980000Y-111630000D01*
X149830000Y-100580000D02*
X152570000Y-100580000D01*
X149830000Y-108020000D02*
X152570000Y-108020000D01*
X152570000Y-108020000D02*
X152570000Y-100580000D01*
X149830000Y-108020000D02*
X149830000Y-100580000D01*
X156630000Y-112220000D02*
X156630000Y-104780000D01*
X159370000Y-112220000D02*
X159370000Y-104780000D01*
X156630000Y-112220000D02*
X159370000Y-112220000D01*
X156630000Y-104780000D02*
X159370000Y-104780000D01*
X154400000Y-112120000D02*
X154400000Y-111350000D01*
X154400000Y-104040000D02*
X154400000Y-104810000D01*
X155770000Y-111350000D02*
X155770000Y-104810000D01*
X153030000Y-111350000D02*
X155770000Y-111350000D01*
X153030000Y-104810000D02*
X153030000Y-111350000D01*
X155770000Y-104810000D02*
X153030000Y-104810000D01*
X149065001Y-100805001D02*
X138565001Y-100805001D01*
X149065001Y-111205001D02*
X149065001Y-100805001D01*
X138565001Y-111205001D02*
X149065001Y-111205001D01*
X138565001Y-100805001D02*
X138565001Y-111205001D01*
X146065001Y-100865001D02*
X144815001Y-100865001D01*
X146065001Y-111145001D02*
X146065001Y-100865001D01*
X141565001Y-111145001D02*
X146065001Y-111145001D01*
X141565001Y-100865001D02*
X141565001Y-111145001D01*
X142815001Y-100865001D02*
X141565001Y-100865001D01*
X144815001Y-100865001D02*
G75*
G02*
X142815001Y-100865001I-1000000J0D01*
G01*
X145460000Y-97340000D02*
X145460000Y-98400000D01*
X144400000Y-97340000D02*
X145460000Y-97340000D01*
X143400000Y-97340000D02*
X143400000Y-99460000D01*
X143400000Y-99460000D02*
X139340000Y-99460000D01*
X143400000Y-97340000D02*
X139340000Y-97340000D01*
X139340000Y-97340000D02*
X139340000Y-99460000D01*
X134060000Y-108260000D02*
X133000000Y-108260000D01*
X134060000Y-107200000D02*
X134060000Y-108260000D01*
X134060000Y-106200000D02*
X131940000Y-106200000D01*
X131940000Y-106200000D02*
X131940000Y-104140000D01*
X134060000Y-106200000D02*
X134060000Y-104140000D01*
X134060000Y-104140000D02*
X131940000Y-104140000D01*
D11*
X159233333Y-102557142D02*
X159185714Y-102604761D01*
X159042857Y-102652380D01*
X158947619Y-102652380D01*
X158804761Y-102604761D01*
X158709523Y-102509523D01*
X158661904Y-102414285D01*
X158614285Y-102223809D01*
X158614285Y-102080952D01*
X158661904Y-101890476D01*
X158709523Y-101795238D01*
X158804761Y-101700000D01*
X158947619Y-101652380D01*
X159042857Y-101652380D01*
X159185714Y-101700000D01*
X159233333Y-101747619D01*
X160138095Y-101652380D02*
X159661904Y-101652380D01*
X159614285Y-102128571D01*
X159661904Y-102080952D01*
X159757142Y-102033333D01*
X159995238Y-102033333D01*
X160090476Y-102080952D01*
X160138095Y-102128571D01*
X160185714Y-102223809D01*
X160185714Y-102461904D01*
X160138095Y-102557142D01*
X160090476Y-102604761D01*
X159995238Y-102652380D01*
X159757142Y-102652380D01*
X159661904Y-102604761D01*
X159614285Y-102557142D01*
D13*
X148595238Y-99726190D02*
X148761904Y-100226190D01*
X148928571Y-99726190D01*
X149190476Y-99726190D02*
X149285714Y-99726190D01*
X149333333Y-99750000D01*
X149380952Y-99797619D01*
X149404761Y-99892857D01*
X149404761Y-100059523D01*
X149380952Y-100154761D01*
X149333333Y-100202380D01*
X149285714Y-100226190D01*
X149190476Y-100226190D01*
X149142857Y-100202380D01*
X149095238Y-100154761D01*
X149071428Y-100059523D01*
X149071428Y-99892857D01*
X149095238Y-99797619D01*
X149142857Y-99750000D01*
X149190476Y-99726190D01*
X149857142Y-100226190D02*
X149619047Y-100226190D01*
X149619047Y-99726190D01*
X150023809Y-99726190D02*
X150023809Y-100130952D01*
X150047619Y-100178571D01*
X150071428Y-100202380D01*
X150119047Y-100226190D01*
X150214285Y-100226190D01*
X150261904Y-100202380D01*
X150285714Y-100178571D01*
X150309523Y-100130952D01*
X150309523Y-99726190D01*
X150547619Y-100226190D02*
X150547619Y-99726190D01*
X150714285Y-100083333D01*
X150880952Y-99726190D01*
X150880952Y-100226190D01*
X151119047Y-99964285D02*
X151285714Y-99964285D01*
X151357142Y-100226190D02*
X151119047Y-100226190D01*
X151119047Y-99726190D01*
X151357142Y-99726190D01*
D11*
X161957142Y-109912380D02*
X161480952Y-109912380D01*
X161480952Y-108912380D01*
X162242857Y-109864761D02*
X162385714Y-109912380D01*
X162623809Y-109912380D01*
X162719047Y-109864761D01*
X162766666Y-109817142D01*
X162814285Y-109721904D01*
X162814285Y-109626666D01*
X162766666Y-109531428D01*
X162719047Y-109483809D01*
X162623809Y-109436190D01*
X162433333Y-109388571D01*
X162338095Y-109340952D01*
X162290476Y-109293333D01*
X162242857Y-109198095D01*
X162242857Y-109102857D01*
X162290476Y-109007619D01*
X162338095Y-108960000D01*
X162433333Y-108912380D01*
X162671428Y-108912380D01*
X162814285Y-108960000D01*
X163766666Y-109912380D02*
X163195238Y-109912380D01*
X163480952Y-109912380D02*
X163480952Y-108912380D01*
X163385714Y-109055238D01*
X163290476Y-109150476D01*
X163195238Y-109198095D01*
X135833333Y-102357142D02*
X135785714Y-102404761D01*
X135642857Y-102452380D01*
X135547619Y-102452380D01*
X135404761Y-102404761D01*
X135309523Y-102309523D01*
X135261904Y-102214285D01*
X135214285Y-102023809D01*
X135214285Y-101880952D01*
X135261904Y-101690476D01*
X135309523Y-101595238D01*
X135404761Y-101500000D01*
X135547619Y-101452380D01*
X135642857Y-101452380D01*
X135785714Y-101500000D01*
X135833333Y-101547619D01*
X136785714Y-102452380D02*
X136214285Y-102452380D01*
X136500000Y-102452380D02*
X136500000Y-101452380D01*
X136404761Y-101595238D01*
X136309523Y-101690476D01*
X136214285Y-101738095D01*
X148383333Y-113327142D02*
X148335714Y-113374761D01*
X148192857Y-113422380D01*
X148097619Y-113422380D01*
X147954761Y-113374761D01*
X147859523Y-113279523D01*
X147811904Y-113184285D01*
X147764285Y-112993809D01*
X147764285Y-112850952D01*
X147811904Y-112660476D01*
X147859523Y-112565238D01*
X147954761Y-112470000D01*
X148097619Y-112422380D01*
X148192857Y-112422380D01*
X148335714Y-112470000D01*
X148383333Y-112517619D01*
X148764285Y-112517619D02*
X148811904Y-112470000D01*
X148907142Y-112422380D01*
X149145238Y-112422380D01*
X149240476Y-112470000D01*
X149288095Y-112517619D01*
X149335714Y-112612857D01*
X149335714Y-112708095D01*
X149288095Y-112850952D01*
X148716666Y-113422380D01*
X149335714Y-113422380D01*
X151033333Y-104657142D02*
X150985714Y-104704761D01*
X150842857Y-104752380D01*
X150747619Y-104752380D01*
X150604761Y-104704761D01*
X150509523Y-104609523D01*
X150461904Y-104514285D01*
X150414285Y-104323809D01*
X150414285Y-104180952D01*
X150461904Y-103990476D01*
X150509523Y-103895238D01*
X150604761Y-103800000D01*
X150747619Y-103752380D01*
X150842857Y-103752380D01*
X150985714Y-103800000D01*
X151033333Y-103847619D01*
X151366666Y-103752380D02*
X151985714Y-103752380D01*
X151652380Y-104133333D01*
X151795238Y-104133333D01*
X151890476Y-104180952D01*
X151938095Y-104228571D01*
X151985714Y-104323809D01*
X151985714Y-104561904D01*
X151938095Y-104657142D01*
X151890476Y-104704761D01*
X151795238Y-104752380D01*
X151509523Y-104752380D01*
X151414285Y-104704761D01*
X151366666Y-104657142D01*
X157833333Y-108757142D02*
X157785714Y-108804761D01*
X157642857Y-108852380D01*
X157547619Y-108852380D01*
X157404761Y-108804761D01*
X157309523Y-108709523D01*
X157261904Y-108614285D01*
X157214285Y-108423809D01*
X157214285Y-108280952D01*
X157261904Y-108090476D01*
X157309523Y-107995238D01*
X157404761Y-107900000D01*
X157547619Y-107852380D01*
X157642857Y-107852380D01*
X157785714Y-107900000D01*
X157833333Y-107947619D01*
X158690476Y-108185714D02*
X158690476Y-108852380D01*
X158452380Y-107804761D02*
X158214285Y-108519047D01*
X158833333Y-108519047D01*
X154293333Y-107952380D02*
X153960000Y-107476190D01*
X153721904Y-107952380D02*
X153721904Y-106952380D01*
X154102857Y-106952380D01*
X154198095Y-107000000D01*
X154245714Y-107047619D01*
X154293333Y-107142857D01*
X154293333Y-107285714D01*
X154245714Y-107380952D01*
X154198095Y-107428571D01*
X154102857Y-107476190D01*
X153721904Y-107476190D01*
X155245714Y-107952380D02*
X154674285Y-107952380D01*
X154960000Y-107952380D02*
X154960000Y-106952380D01*
X154864761Y-107095238D01*
X154769523Y-107190476D01*
X154674285Y-107238095D01*
X143038095Y-102452380D02*
X143038095Y-103261904D01*
X143085714Y-103357142D01*
X143133333Y-103404761D01*
X143228571Y-103452380D01*
X143419047Y-103452380D01*
X143514285Y-103404761D01*
X143561904Y-103357142D01*
X143609523Y-103261904D01*
X143609523Y-102452380D01*
X144609523Y-103452380D02*
X144038095Y-103452380D01*
X144323809Y-103452380D02*
X144323809Y-102452380D01*
X144228571Y-102595238D01*
X144133333Y-102690476D01*
X144038095Y-102738095D01*
D13*
X141135714Y-99750000D02*
X141088095Y-99726190D01*
X141016666Y-99726190D01*
X140945238Y-99750000D01*
X140897619Y-99797619D01*
X140873809Y-99845238D01*
X140850000Y-99940476D01*
X140850000Y-100011904D01*
X140873809Y-100107142D01*
X140897619Y-100154761D01*
X140945238Y-100202380D01*
X141016666Y-100226190D01*
X141064285Y-100226190D01*
X141135714Y-100202380D01*
X141159523Y-100178571D01*
X141159523Y-100011904D01*
X141064285Y-100011904D01*
X141350000Y-100083333D02*
X141588095Y-100083333D01*
X141302380Y-100226190D02*
X141469047Y-99726190D01*
X141635714Y-100226190D01*
X141802380Y-100226190D02*
X141802380Y-99726190D01*
X142040476Y-100226190D02*
X142040476Y-99726190D01*
X142326190Y-100226190D01*
X142326190Y-99726190D01*
D11*
X132666666Y-108712380D02*
X132666666Y-109426666D01*
X132619047Y-109569523D01*
X132523809Y-109664761D01*
X132380952Y-109712380D01*
X132285714Y-109712380D01*
X133666666Y-109712380D02*
X133095238Y-109712380D01*
X133380952Y-109712380D02*
X133380952Y-108712380D01*
X133285714Y-108855238D01*
X133190476Y-108950476D01*
X133095238Y-108998095D01*
M02*
